<svg xmlns="http://www.w3.org/2000/svg" width="66" height="66" viewBox="0 0 66 66">
    <g fill="none" fill-rule="evenodd" stroke="#FFF" transform="translate(3 3)">
        <circle cx="30" cy="30" r="30" fill="#E0E0E0" fill-opacity=".3" stroke-width="2"/>
        <path fill="#FFF" d="M24.525 19.28l-.023 21.237 17.483-10.618-17.46-10.618zm0-1.52c.127 0 .262.02.404.06.143.04.27.099.38.178l17.483 10.618c.222.127.396.305.523.534.127.23.19.48.19.749s-.063.518-.19.748c-.127.23-.3.408-.523.534L25.286 41.8a1.2 1.2 0 0 1-.38.178c-.143.04-.278.06-.404.06-.127 0-.254-.017-.38-.048a1.398 1.398 0 0 1-.357-.143 1.518 1.518 0 0 1-.784-1.33l.024-21.236a1.518 1.518 0 0 1 1.52-1.52z"/>
    </g>
</svg>
